<svg width="16" height="16" viewBox="0 0 16 16" fill="none" xmlns="http://www.w3.org/2000/svg">
<path d="M5.13194 7.25304C5.71772 7.83882 6.66747 7.83882 7.25326 7.25304C7.83904 6.66725 7.83904 5.7175 7.25326 5.13172C6.66747 4.54593 5.71772 4.54593 5.13194 5.13172C4.54615 5.7175 4.54615 6.66725 5.13194 7.25304Z" stroke="#2D2D2E"/>
<path d="M1.5 7.58579V2.5C1.5 1.94772 1.94772 1.5 2.5 1.5H7.58579C7.851 1.5 8.10536 1.60536 8.29289 1.79289L13.7929 7.29289C14.1834 7.68342 14.1834 8.31658 13.7929 8.70711L8.70711 13.7929C8.31658 14.1834 7.68342 14.1834 7.29289 13.7929L1.79289 8.29289C1.60536 8.10536 1.5 7.851 1.5 7.58579Z" stroke="#2D2D2E"/>
</svg>
