<svg width="16" height="16" viewBox="0 0 16 16" fill="none" xmlns="http://www.w3.org/2000/svg">
<rect width="16" height="16" rx="3" fill="#408CFF"/>
<path fill-rule="evenodd" clip-rule="evenodd" d="M3.5 3C3.22386 3 3 3.22386 3 3.5V5.5C3 5.77614 3.22386 6 3.5 6H5V8V12C5 13.1046 5.89543 14 7 14H10.5H12H12.5C12.7761 14 13 13.7761 13 13.5V11.5C13 11.2239 12.7761 11 12.5 11H10.5C10.2239 11 10 11.2239 10 11.5V12H7V10H10.5H12H12.5C12.7761 10 13 9.77614 13 9.5V7.5C13 7.22386 12.7761 7 12.5 7H10.5C10.2239 7 10 7.22386 10 7.5V8H7V6H8.5C8.77614 6 9 5.77614 9 5.5V3.5C9 3.22386 8.77614 3 8.5 3H3.5Z" fill="white"/>
</svg>
